<?xml version="1.0" standalone="no"?>
<!DOCTYPE svg PUBLIC "-//W3C//DTD SVG 20010904//EN"
 "http://www.w3.org/TR/2001/REC-SVG-20010904/DTD/svg10.dtd">
<svg version="1.0" xmlns="http://www.w3.org/2000/svg"
 width="496.000000pt" height="474.000000pt" viewBox="0 0 496.000000 474.000000"
 preserveAspectRatio="xMidYMid meet">

<g transform="translate(0.000000,474.000000) scale(0.100000,-0.100000)"
fill="#000000" stroke="none">
<path d="M2250 4550 c-14 -4 -42 -8 -63 -9 -56 -1 -281 -49 -372 -78 -100 -32
-277 -102 -289 -114 -6 -5 -16 -9 -23 -9 -6 0 -51 -22 -99 -50 -48 -27 -89
-50 -91 -50 -7 0 -86 -55 -172 -120 -40 -30 -83 -62 -95 -70 -37 -26 -267
-253 -294 -292 -15 -21 -60 -82 -100 -136 -39 -55 -72 -103 -72 -107 0 -5 -10
-22 -23 -39 -31 -42 -101 -181 -143 -286 -19 -47 -39 -94 -44 -105 -13 -29
-37 -112 -49 -170 -6 -27 -20 -88 -30 -135 -57 -245 -59 -556 -5 -815 37 -182
63 -283 84 -330 5 -11 23 -56 40 -100 34 -85 114 -250 134 -275 7 -8 29 -44
50 -79 118 -204 401 -496 621 -641 192 -127 451 -248 645 -301 224 -62 537
-95 732 -79 249 21 368 43 563 106 144 46 174 58 260 100 28 13 54 24 59 24 4
0 22 10 39 22 18 13 41 28 52 34 113 60 151 84 255 164 212 163 419 390 543
595 105 173 208 409 246 561 11 43 29 120 42 169 21 87 42 295 42 420 0 394
-121 819 -328 1155 -156 253 -394 499 -645 667 -91 62 -269 163 -284 163 -7 0
-16 4 -21 9 -13 12 -190 82 -290 114 -76 25 -257 62 -413 86 -82 12 -424 13
-462 1z m525 -259 c222 -35 387 -87 585 -185 314 -156 563 -376 770 -681 70
-104 185 -337 218 -445 24 -77 71 -269 83 -340 21 -126 17 -474 -7 -601 -19
-99 -86 -334 -109 -378 -14 -28 -25 -55 -25 -61 0 -6 -13 -36 -28 -68 -202
-413 -538 -744 -953 -940 -155 -73 -389 -141 -564 -164 -114 -15 -424 -15
-535 1 -330 46 -640 173 -917 378 -106 79 -240 203 -320 298 -119 142 -254
362 -312 513 -12 28 -30 73 -40 100 -28 67 -55 178 -86 343 -26 135 -27 157
-22 339 4 154 11 221 31 320 29 142 57 242 86 315 12 28 25 59 29 70 139 351
441 703 793 923 87 54 276 142 385 178 174 58 265 77 523 108 67 8 296 -5 415
-23z"/>
<path d="M2325 3935 c-160 -37 -299 -132 -413 -281 -48 -62 -110 -200 -127
-279 -19 -91 -19 -274 0 -367 23 -114 99 -257 187 -352 59 -64 68 -78 48 -74
-188 42 -288 48 -412 24 -258 -50 -463 -222 -558 -468 -28 -71 -33 -99 -37
-198 -6 -140 5 -206 55 -319 80 -180 223 -318 400 -385 221 -84 416 -74 631
31 77 38 110 62 176 127 86 86 150 185 180 277 9 30 19 61 21 69 8 23 29 -11
55 -88 73 -219 306 -409 567 -461 339 -68 721 151 833 476 64 188 43 416 -56
584 -65 111 -159 203 -277 273 -154 90 -389 121 -574 75 -47 -11 -88 -18 -91
-15 -3 3 24 37 60 76 74 79 134 182 169 286 20 61 23 88 23 239 0 150 -3 179
-23 245 -39 121 -96 214 -192 310 -148 147 -268 201 -465 206 -78 2 -141 -2
-180 -11z m-367 -453 c9 -7 12 -63 10 -248 l-3 -239 -40 0 -40 0 -3 239 c-3
252 -2 256 43 256 11 0 26 -4 33 -8z m412 -7 c7 -8 10 -25 6 -40 -6 -24 -8
-25 -99 -25 -59 0 -97 -4 -105 -12 -7 -7 -12 -33 -12 -58 0 -25 5 -51 12 -58
8 -8 46 -12 104 -12 75 0 93 -3 98 -16 12 -30 7 -239 -6 -252 -8 -8 -54 -12
-139 -12 -137 0 -163 9 -152 50 5 18 14 20 92 20 47 0 92 4 99 9 9 5 12 25 10
62 l-3 54 -80 3 c-136 4 -125 -10 -125 151 0 102 3 141 13 144 6 3 71 6 143 6
105 1 134 -2 144 -14z m408 6 c8 -5 12 -21 10 -37 -2 -24 -8 -29 -33 -32 -81
-7 -74 12 -77 -215 l-3 -202 -40 0 -40 0 -5 197 c-3 111 -9 201 -15 207 -5 5
-26 11 -45 13 -28 2 -36 8 -38 26 -7 46 11 52 147 52 69 0 132 -4 139 -9z
m287 -31 l0 -35 -55 -3 c-65 -3 -80 -18 -80 -77 0 -54 13 -65 77 -65 48 0 53
-2 59 -25 11 -43 -1 -55 -55 -55 -57 0 -81 -17 -81 -59 0 -47 21 -65 68 -59
52 7 75 -8 70 -47 l-3 -30 -105 0 -105 0 -3 239 c-2 185 1 241 10 248 7 4 56
7 108 6 l95 -3 0 -35z m-399 -1061 c-69 -74 -100 -126 -141 -237 -17 -48 -36
-85 -41 -83 -5 3 -15 27 -22 54 -20 79 -81 184 -150 259 -35 38 -61 72 -58 75
3 3 27 0 53 -8 68 -20 314 -18 368 3 22 8 42 11 43 6 2 -4 -21 -35 -52 -69z
m-870 5 c12 -49 -5 -142 -38 -206 -28 -55 -32 -75 -36 -161 -3 -75 0 -108 12
-141 47 -124 149 -137 344 -45 46 21 86 39 89 39 10 0 -9 -76 -36 -141 -35
-82 -89 -149 -161 -198 -94 -64 -138 -76 -280 -76 -141 1 -186 14 -288 84 -95
65 -132 118 -171 245 -36 115 -26 155 29 116 65 -46 177 -90 230 -90 45 0 56
4 80 30 27 29 28 31 32 192 6 197 22 250 98 328 55 56 86 64 96 24z m1514 -74
c4 -37 9 -45 30 -50 36 -9 49 -2 65 36 15 37 30 42 60 20 17 -13 18 -17 5 -55
-12 -38 -12 -43 6 -56 26 -20 48 -18 69 5 20 23 45 26 63 8 18 -18 15 -43 -8
-63 -26 -23 -25 -47 1 -70 17 -17 24 -17 52 -7 29 11 34 10 50 -9 24 -30 22
-37 -18 -56 -27 -13 -35 -23 -35 -43 0 -34 17 -50 52 -50 17 0 31 -7 38 -19
15 -29 2 -51 -30 -51 -58 0 -82 -71 -32 -96 39 -19 45 -30 32 -53 -9 -18 -19
-21 -57 -19 -42 3 -48 0 -62 -24 -15 -25 -14 -28 8 -52 25 -27 25 -53 -1 -70
-13 -8 -22 -6 -41 12 -29 27 -48 28 -78 3 -21 -17 -22 -22 -11 -40 17 -28 15
-58 -4 -65 -32 -12 -50 -5 -61 24 -14 38 -37 47 -68 26 -17 -11 -25 -26 -25
-45 0 -67 -61 -65 -76 2 -8 38 -12 42 -41 45 -27 3 -34 -2 -47 -27 -20 -38
-31 -44 -56 -31 -17 9 -20 19 -18 57 3 42 0 48 -24 62 -25 15 -28 14 -51 -7
-29 -27 -53 -28 -67 -2 -11 21 2 60 20 60 18 0 11 46 -10 65 -16 14 -24 15
-51 6 -38 -13 -59 -1 -59 34 0 17 8 26 30 34 24 8 30 16 30 38 0 38 -10 51
-44 55 -60 7 -60 69 0 76 34 4 44 17 44 54 0 20 -7 30 -27 40 -31 15 -41 49
-20 66 11 9 22 9 47 0 31 -10 35 -9 57 17 l24 28 -27 28 c-24 25 -26 32 -16
54 14 30 42 32 67 5 23 -25 50 -25 74 -1 17 17 18 24 8 51 -8 22 -9 35 -1 48
19 30 43 26 65 -12 16 -28 27 -36 50 -36 29 0 50 24 42 47 -9 25 17 54 45 51
24 -3 28 -8 32 -48z"/>
<path d="M3207 2125 c-82 -23 -137 -76 -170 -165 -22 -59 -21 -88 3 -153 25
-66 80 -121 148 -147 66 -25 98 -25 165 0 99 37 159 124 158 231 0 110 -56
187 -166 228 -63 24 -72 24 -138 6z"/>
<path d="M1920 3901 c-345 -126 -633 -350 -825 -641 -122 -185 -213 -408 -252
-615 -34 -183 -18 -581 29 -699 11 -27 12 -27 25 -10 7 10 13 34 13 54 0 101
72 282 155 390 62 80 164 173 243 220 109 64 294 120 403 120 75 0 78 8 36 97
-58 125 -71 194 -71 378 0 134 4 173 22 238 45 157 134 301 257 414 41 38 75
73 75 76 0 13 -34 6 -110 -22z"/>
<path d="M2970 3895 c0 -4 33 -40 73 -80 78 -79 157 -201 194 -302 40 -111 66
-268 60 -363 -6 -103 -47 -263 -89 -348 -17 -34 -29 -64 -27 -67 3 -2 42 -6
87 -9 142 -9 312 -60 403 -122 28 -19 55 -34 60 -34 4 0 48 -40 97 -89 100
-98 170 -206 202 -309 29 -93 35 -101 51 -71 10 18 13 80 13 249 0 219 0 228
-31 351 -39 155 -64 229 -118 344 -79 170 -172 304 -303 439 -109 111 -165
159 -270 229 -142 96 -402 213 -402 182z"/>
<path d="M642 2260 c-56 -13 -56 -33 0 -44 35 -7 29 -22 -12 -28 -35 -4 -33
-33 2 -33 42 -1 44 -13 9 -49 -42 -43 -34 -60 24 -53 55 6 80 -8 42 -22 -15
-6 -39 -14 -52 -17 -13 -3 -26 -12 -29 -19 -7 -20 15 -83 36 -102 25 -22 84
-20 117 5 32 24 41 90 17 127 -9 14 -16 33 -16 45 0 16 -6 20 -35 20 -44 0
-45 17 -5 53 29 27 37 47 23 61 -4 4 -7 19 -8 34 0 24 -4 27 -40 29 -22 1 -55
-2 -73 -7z m65 -46 c-3 -3 -12 -4 -19 -1 -8 3 -5 6 6 6 11 1 17 -2 13 -5z m58
-254 c0 -52 -87 -59 -93 -7 -3 28 12 36 63 34 25 -2 30 -6 30 -27z"/>
<path d="M4200 2231 c-19 -13 -4 -28 30 -33 37 -5 31 -30 -12 -50 -41 -20 -49
-41 -20 -57 15 -9 15 -12 -11 -39 -15 -16 -30 -44 -33 -63 -5 -29 -1 -40 24
-67 l30 -32 -39 0 c-29 0 -41 -5 -45 -17 -4 -10 -12 -31 -19 -48 -17 -39 -29
-105 -19 -105 4 0 15 7 25 16 15 14 22 13 75 -5 32 -11 62 -17 66 -15 21 13 2
33 -54 55 -62 24 -77 41 -59 68 8 12 18 12 70 -3 59 -16 81 -15 81 4 0 6 -17
17 -37 26 -39 16 -38 18 8 28 14 3 38 17 52 30 39 36 36 75 -10 120 l-37 36
43 0 c50 0 52 20 3 32 -41 11 -41 25 1 43 73 30 67 57 -13 68 -25 4 -54 9 -65
12 -11 3 -27 1 -35 -4z m80 -221 c11 -11 20 -23 20 -28 0 -17 -32 -52 -48 -52
-29 0 -62 30 -62 55 0 44 56 59 90 25z"/>
<path d="M760 1863 c-60 -10 -105 -42 -80 -58 10 -6 129 24 147 38 29 21 -2
31 -67 20z"/>
<path d="M690 1774 c0 -7 14 -22 30 -34 31 -22 39 -57 19 -77 -12 -12 -4 -33
12 -33 5 0 37 27 71 59 56 53 61 62 48 74 -20 20 -180 29 -180 11z m120 -44
c0 -5 -7 -10 -15 -10 -8 0 -15 5 -15 10 0 6 7 10 15 10 8 0 15 -4 15 -10z"/>
<path d="M4047 1673 c-16 -16 -3 -42 49 -95 31 -32 60 -58 64 -58 14 0 18 24
7 46 -11 26 5 60 33 69 33 10 23 32 -17 39 -50 8 -128 8 -136 -1z m78 -43 c3
-5 -1 -10 -10 -10 -9 0 -13 5 -10 10 3 6 8 10 10 10 2 0 7 -4 10 -10z"/>
<path d="M823 1636 c-59 -29 -75 -47 -54 -61 5 -3 21 0 35 6 35 16 44 5 23
-30 -20 -34 -22 -71 -4 -71 17 0 135 58 142 70 10 16 -24 24 -52 11 -14 -6
-28 -10 -30 -7 -2 2 5 23 17 46 22 43 21 71 -2 69 -7 -1 -41 -15 -75 -33z"/>
<path d="M3986 1545 c-48 -48 -41 -100 16 -135 50 -30 82 -26 114 15 23 31 25
39 15 61 -14 32 -37 26 -33 -8 6 -53 -56 -64 -92 -15 l-20 27 27 26 c31 28 34
39 12 48 -8 3 -25 -5 -39 -19z"/>
<path d="M2455 1443 c-10 -16 -25 -35 -34 -44 -9 -9 -38 -40 -65 -68 -197
-207 -524 -300 -801 -227 -49 13 -114 33 -142 44 -75 29 -71 14 12 -54 230
-186 497 -302 816 -353 87 -14 366 -14 443 0 290 53 496 133 697 270 132 91
143 115 39 86 -97 -27 -301 -23 -417 8 -187 50 -358 166 -470 318 -19 26 -41
47 -48 47 -7 0 -21 -12 -30 -27z"/>
<path d="M965 1436 c-13 -19 -14 -29 -6 -45 14 -26 14 -58 -1 -67 -15 -9 -38
23 -38 54 0 32 -24 23 -28 -10 -3 -28 40 -88 64 -88 8 0 23 9 35 21 18 18 20
28 14 66 -5 35 -4 44 6 41 8 -3 16 -15 19 -29 8 -31 34 -31 38 0 4 27 -42 81
-70 81 -9 0 -25 -11 -33 -24z"/>
<path d="M3914 1418 c-5 -7 11 -28 40 -53 33 -28 47 -48 44 -61 -5 -30 -33
-28 -79 5 -23 17 -48 31 -56 31 -16 0 -17 -32 -1 -48 9 -9 4 -12 -25 -12 -28
0 -45 -7 -67 -29 -15 -17 -31 -39 -35 -50 -3 -12 -12 -21 -19 -21 -14 0 -86
-71 -86 -86 0 -15 100 -114 114 -114 18 0 86 60 86 76 0 20 -24 17 -45 -6 -19
-21 -55 -27 -55 -10 0 6 7 22 16 35 24 37 13 50 -19 24 -21 -16 -31 -19 -40
-10 -8 8 -4 18 16 39 15 15 27 33 27 40 0 7 4 12 10 12 10 0 78 -56 96 -80 16
-19 54 0 77 40 23 39 21 63 -8 98 -35 41 -31 46 13 21 48 -28 86 -20 107 21 8
16 15 36 15 44 0 36 -111 119 -126 94z m-35 -204 c15 -20 18 -31 11 -45 -17
-30 -28 -31 -65 -3 -50 38 -47 74 6 74 18 0 35 -9 48 -26z"/>
<path d="M1048 1309 c-66 -34 -77 -91 -29 -140 22 -21 39 -29 66 -29 36 0 36
0 29 -35 -5 -30 -2 -39 25 -65 20 -21 39 -30 53 -28 31 4 29 31 -2 38 -34 8
-39 51 -10 80 28 28 61 22 78 -12 16 -35 32 -36 32 -3 0 15 -11 36 -27 51 -22
21 -34 24 -62 19 l-34 -6 7 40 c5 35 3 44 -21 70 -37 39 -61 44 -105 20z m70
-35 c12 -8 22 -22 22 -31 0 -24 -40 -63 -65 -63 -50 0 -61 56 -17 89 33 25 32
25 60 5z"/>
<path d="M1280 1045 c-19 -25 -37 -45 -42 -45 -10 0 -11 -37 0 -44 11 -7 112
99 112 118 0 31 -36 16 -70 -29z"/>
<path d="M1346 1020 c-9 -17 -28 -42 -42 -57 -29 -31 -31 -59 -5 -68 10 -3 26
-14 36 -25 10 -11 24 -20 32 -20 22 0 15 27 -12 44 -14 9 -25 23 -25 32 0 22
28 29 49 10 10 -9 23 -16 29 -16 19 0 14 28 -8 40 -21 11 -27 35 -10 45 9 6
99 -57 112 -79 3 -6 -9 -36 -27 -65 -19 -30 -32 -58 -29 -63 12 -19 34 -5 63
42 26 42 36 50 61 50 44 0 30 18 -54 73 -41 26 -82 57 -91 67 -27 29 -58 25
-79 -10z"/>
<path d="M3477 974 c-14 -14 76 -134 101 -134 20 0 82 50 82 66 0 19 -24 18
-40 -1 -21 -26 -46 -17 -84 30 -37 45 -47 51 -59 39z"/>
<path d="M3371 906 c-8 -10 -9 -21 -3 -33 5 -10 12 -36 16 -58 11 -61 16 -75
30 -75 6 0 16 15 21 33 9 29 14 32 50 33 62 1 57 25 -14 73 -65 44 -82 49
-100 27z m63 -67 c-3 -5 -10 -7 -15 -3 -5 3 -7 10 -3 15 3 5 10 7 15 3 5 -3 7
-10 3 -15z"/>
<path d="M1633 865 c-3 -9 -3 -34 1 -56 5 -29 2 -48 -11 -69 -13 -23 -14 -33
-5 -42 9 -9 21 -1 55 33 24 24 54 51 68 61 19 13 21 19 12 29 -9 9 -17 9 -36
-4 -28 -18 -37 -13 -37 18 0 37 -35 59 -47 30z"/>
<path d="M3225 829 c-22 -27 -26 -39 -21 -68 6 -39 57 -91 89 -91 19 0 77 51
77 69 0 23 -23 21 -45 -3 -13 -14 -28 -26 -34 -26 -16 0 -40 29 -47 56 -8 32
11 54 48 54 42 0 35 34 -8 38 -25 2 -37 -4 -59 -29z"/>
<path d="M3130 778 c0 -8 9 -31 19 -52 11 -20 24 -51 30 -68 15 -42 37 -31 34
17 -2 21 -6 41 -10 44 -5 3 -15 19 -23 36 -16 31 -50 47 -50 23z"/>
<path d="M1806 712 c-14 -37 -26 -73 -26 -80 0 -20 38 -14 45 8 7 21 14 24 53
20 28 -2 30 26 2 35 -21 7 -27 30 -10 40 5 3 18 2 27 -3 20 -10 43 -5 43 9 0
12 -62 39 -89 39 -15 0 -25 -16 -45 -68z"/>
<path d="M3078 764 c-4 -3 -2 -19 2 -35 12 -40 -6 -47 -39 -15 -30 29 -59 34
-67 11 -4 -10 -16 -14 -33 -13 -22 3 -26 -1 -29 -27 -6 -49 -46 -62 -62 -20
-10 26 -35 34 -42 14 -3 -9 -13 -9 -41 0 -48 16 -86 -1 -110 -51 -17 -34 -17
-39 -3 -67 33 -63 95 -79 136 -35 20 20 22 27 11 34 -16 9 -41 3 -41 -11 0
-20 -41 -7 -56 17 -13 19 -15 32 -8 52 9 25 14 27 64 27 51 -1 55 -3 62 -28 5
-15 11 -39 16 -54 4 -15 15 -29 25 -31 14 -3 17 4 17 36 0 59 40 69 61 15 11
-30 46 -28 41 2 -17 102 -18 115 -8 105 6 -6 18 -34 27 -63 20 -65 45 -71 41
-9 -1 23 0 42 4 42 3 0 22 -13 41 -30 57 -50 74 -33 49 48 -23 79 -40 104 -58
86z"/>
<path d="M1982 714 c-12 -8 -29 -29 -38 -45 -43 -83 56 -166 129 -109 32 26
44 25 43 -1 -1 -32 22 -35 34 -5 14 37 34 32 55 -14 12 -27 24 -40 34 -37 9 2
14 10 12 18 -14 51 -13 61 8 75 46 33 11 83 -64 91 -28 4 -50 1 -60 -7 -12
-10 -21 -7 -50 19 -40 34 -69 39 -103 15z m78 -43 c14 -28 12 -52 -7 -73 -21
-24 -60 -23 -73 1 -14 27 -13 35 11 65 24 31 54 34 69 7z m160 -26 c6 -8 9
-19 5 -25 -10 -16 -42 -12 -49 6 -12 32 21 47 44 19z"/>
<path d="M2355 660 c-3 -5 6 -17 19 -26 24 -15 25 -20 19 -74 -4 -39 -2 -60 6
-64 22 -14 40 15 43 71 2 41 8 59 21 67 25 16 37 -7 37 -70 0 -64 13 -76 76
-72 49 3 77 28 31 28 -60 0 -79 34 -26 47 41 11 42 27 2 31 -44 4 -44 30 -1
34 22 2 34 9 36 21 3 14 -4 17 -42 17 -25 0 -57 -5 -71 -12 -19 -9 -28 -9 -37
0 -14 14 -104 16 -113 2z"/>
</g>
</svg>
