<svg width="1440" height="452" viewBox="0 0 1440 452" fill="none" xmlns="http://www.w3.org/2000/svg">
<path d="M581.628 814.543C404.885 910.915 183.48 845.761 87.1082 669.017C-9.26396 492.274 55.89 270.869 232.634 174.497C409.377 78.1251 630.781 143.279 727.154 320.023C823.526 496.766 758.372 718.17 581.628 814.543Z" fill="#F96D08" fill-opacity="0.29"/>
<circle cx="175.918" cy="540.83" r="226.963" transform="rotate(61.3979 175.918 540.83)" fill="#5E54F1" fill-opacity="0.89"/>
<path d="M988.022 814.543C1164.77 910.915 1386.17 845.761 1482.54 669.017C1578.91 492.274 1513.76 270.869 1337.02 174.497C1160.27 78.1251 938.869 143.279 842.497 320.023C746.125 496.766 811.279 718.17 988.022 814.543Z" fill="#F96D08" fill-opacity="0.29"/>
<circle r="226.963" transform="matrix(-0.478724 0.877965 0.877965 0.478724 1393.73 540.83)" fill="#5E54F1" fill-opacity="0.89"/>
<path d="M921.628 314.497C744.885 218.125 523.48 283.279 427.108 460.023C330.736 636.767 395.89 858.171 572.634 954.543C749.377 1050.91 970.781 985.761 1067.15 809.017C1163.53 632.274 1098.37 410.87 921.628 314.497Z" fill="#F96D08" fill-opacity="0.29"/>
</svg>
