<svg width="282" height="588" viewBox="0 0 282 588" fill="none" xmlns="http://www.w3.org/2000/svg">
<path d="M232.629 628.501C245.178 618.501 252.102 603.474 250.946 588.77C249.311 568.026 233.222 553.3 212.384 544.56C204.756 541.356 196.745 538.753 189.604 534.792C172.367 525.227 173.17 510.26 165.294 495.668C144.089 456.357 84.9217 485.023 48.4749 475.81C24.7571 469.816 8.15013 450.34 7.31753 429.207C7.25752 427.691 7.25003 426.093 6.37242 424.773C5.76485 423.865 4.79723 423.183 3.81462 422.575C-11.5247 413.047 -34.5824 416.573 -48.264 426.799C-63.3933 438.112 -70.3167 455.502 -74.4121 472.412C-77.6825 485.908 -79.5577 499.944 -76.3099 513.448C-67.5038 550.104 -24.5837 573.105 -6.68662 607.21C-2.82366 614.577 -0.153343 622.417 4.4297 629.469C16.0861 647.399 38.6112 657.977 61.0839 664.804C88.7922 673.221 119.906 677.242 147.239 667.962C164.746 662.021 179.508 651.022 197.135 645.351C209.414 641.382 223.006 636.168 232.629 628.501Z" fill="#DD5A34"/>
<path d="M8.98823 417.709C9.84064 439.345 26.8135 459.155 50.8998 465.242C60.1738 467.586 70.8388 467.51 81.8623 466.731C86.5795 466.398 91.3835 465.934 96.1845 465.47C96.9992 465.391 97.8139 465.312 98.628 465.234C104.247 464.696 109.845 464.187 115.32 463.913C137.288 462.814 156.787 465.517 167.084 484.605L167.084 484.606C169.017 488.187 170.423 491.802 171.72 495.394C172.009 496.193 172.293 496.994 172.576 497.793C173.56 500.564 174.538 503.322 175.691 505.976C178.691 512.879 182.927 519.211 191.789 524.129L192.274 523.254L191.789 524.129C196.803 526.91 202.28 529.046 207.684 531.153C210.04 532.071 212.383 532.985 214.667 533.944L214.667 533.944C235.352 542.62 251.027 557.11 252.619 577.31C253.746 591.651 246.992 606.367 234.676 616.181C225.207 623.726 211.77 628.895 199.497 632.862C190.592 635.727 182.424 639.934 174.351 644.13L173.771 644.432C165.872 648.539 158.049 652.606 149.588 655.478L149.909 656.425L149.588 655.478C122.542 664.66 91.6687 660.701 64.0445 652.309C41.6094 645.494 19.3892 635 7.9381 617.386C5.68812 613.924 3.89943 610.256 2.18059 606.503C1.78137 605.632 1.38525 604.754 0.98774 603.873C-0.317604 600.981 -1.6378 598.056 -3.13107 595.208L-3.13122 595.208C-10.9099 580.385 -23.3697 567.642 -35.6242 555.11C-37.6008 553.088 -39.5721 551.072 -41.5175 549.054C-55.5933 534.45 -68.3352 519.711 -72.6676 501.677L-72.6677 501.677C-75.8598 488.405 -74.0282 474.554 -70.7703 461.109L-70.7703 461.109C-66.6918 444.27 -59.8409 427.163 -44.9955 416.062C-38.3146 411.069 -29.3058 407.689 -20.0738 406.736C-10.8409 405.784 -1.47819 407.269 5.95691 411.887L5.95857 411.888C6.93279 412.49 7.73319 413.078 8.21078 413.791C8.87433 414.791 8.92188 416.009 8.98138 417.534C8.98363 417.592 8.9859 417.65 8.98823 417.709ZM8.98823 417.709L9.98745 417.669M8.98823 417.709L9.98745 417.669M9.98745 417.669C9.98389 417.579 9.98051 417.489 9.97712 417.398C9.92348 415.965 9.86783 414.477 9.04234 413.235C8.43478 412.328 7.46716 411.645 6.48454 411.037L167.964 484.131C154.326 458.848 124.986 461.683 96.0864 464.475C80.051 466.024 64.1512 467.56 51.1448 464.272C27.427 458.278 10.8201 438.803 9.98745 417.669Z" stroke="black" stroke-width="2"/>
<path d="M36.5126 428.718C37.3651 450.355 54.3379 470.164 78.4242 476.252C87.6982 478.596 98.3632 478.52 109.387 477.741C114.104 477.408 118.908 476.943 123.709 476.48C124.524 476.401 125.338 476.322 126.152 476.244C131.771 475.705 137.37 475.197 142.844 474.923C164.812 473.824 184.312 476.527 194.608 495.615L194.608 495.615C196.541 499.196 197.948 502.812 199.245 506.404C199.533 507.203 199.817 508.003 200.101 508.802C201.084 511.574 202.062 514.332 203.216 516.986C206.216 523.888 210.452 530.221 219.313 535.138L219.798 534.264L219.313 535.138C224.328 537.92 229.805 540.056 235.208 542.162C237.565 543.081 239.907 543.995 242.191 544.954L242.192 544.954C262.876 553.63 278.551 568.12 280.144 588.32C281.27 602.661 274.516 617.376 262.2 627.191C252.731 634.735 239.294 639.905 227.022 643.871C218.117 646.737 209.949 650.943 201.875 655.14L201.295 655.442C193.396 659.549 185.573 663.616 177.112 666.488L177.433 667.434L177.112 666.488C150.067 675.67 119.193 671.711 91.5689 663.319C69.1338 656.504 46.9136 646.01 35.4625 628.396C33.2125 624.934 31.4238 621.266 29.705 617.513C29.3058 616.642 28.9097 615.764 28.5122 614.883C27.2068 611.991 25.8866 609.066 24.3933 606.218L24.3932 606.217C16.6146 591.394 4.15471 578.652 -8.09979 566.12C-10.0764 564.098 -12.0476 562.082 -13.9931 560.064C-28.0689 545.46 -40.8107 530.721 -45.1432 512.687L-45.1433 512.687C-48.3354 499.414 -46.5038 485.564 -43.2459 472.119L-43.2459 472.119C-39.1674 455.279 -32.3165 438.173 -17.471 427.072C-10.7902 422.079 -1.7814 418.698 7.45058 417.746C16.6835 416.794 26.0462 418.278 33.4813 422.897L33.483 422.898C34.4572 423.5 35.2576 424.087 35.7352 424.801C36.3987 425.8 36.4463 427.019 36.5058 428.544C36.508 428.601 36.5103 428.66 36.5126 428.718ZM36.5126 428.718L37.5119 428.679M36.5126 428.718L37.5119 428.679M37.5119 428.679C37.5083 428.589 37.5049 428.499 37.5015 428.408C37.4479 426.975 37.3922 425.487 36.5668 424.245C35.9592 423.337 34.9916 422.655 34.009 422.047L195.488 495.14C181.85 469.858 152.51 472.692 123.611 475.484C107.575 477.034 91.6756 478.57 78.6692 475.282C54.9514 469.288 38.3445 449.812 37.5119 428.679Z" stroke="#DD5A34" stroke-width="2"/>
<path d="M38.648 4.704C37.352 4.704 36.296 3.648 36.296 2.352C36.296 1.056 37.352 0 38.648 0C39.944 0 41 1.056 41 2.352C41 3.648 39.944 4.704 38.648 4.704ZM41 16.424C41 15.128 39.944 14.072 38.648 14.072C37.352 14.072 36.296 15.128 36.296 16.424C36.296 17.72 37.352 18.776 38.648 18.776C39.944 18.784 41 17.728 41 16.424ZM41 30.504C41 29.208 39.944 28.152 38.648 28.152C37.352 28.152 36.296 29.208 36.296 30.504C36.296 31.8 37.352 32.856 38.648 32.856C39.944 32.856 41 31.8 41 30.504ZM41 44.576C41 43.28 39.944 42.224 38.648 42.224C37.352 42.224 36.296 43.28 36.296 44.576C36.296 45.872 37.352 46.928 38.648 46.928C39.944 46.928 41 45.872 41 44.576ZM41 58.648C41 57.352 39.944 56.296 38.648 56.296C37.352 56.296 36.296 57.352 36.296 58.648C36.296 59.944 37.352 61 38.648 61C39.944 61 41 59.944 41 58.648ZM26.928 2.352C26.928 1.056 25.872 0 24.576 0C23.28 0 22.224 1.056 22.224 2.352C22.224 3.648 23.28 4.704 24.576 4.704C25.872 4.704 26.928 3.656 26.928 2.352ZM26.928 16.424C26.928 15.128 25.872 14.072 24.576 14.072C23.28 14.072 22.224 15.128 22.224 16.424C22.224 17.72 23.28 18.776 24.576 18.776C25.872 18.784 26.928 17.728 26.928 16.424ZM26.928 30.504C26.928 29.208 25.872 28.152 24.576 28.152C23.28 28.152 22.224 29.208 22.224 30.504C22.224 31.8 23.28 32.856 24.576 32.856C25.872 32.856 26.928 31.8 26.928 30.504ZM26.928 44.576C26.928 43.28 25.872 42.224 24.576 42.224C23.28 42.224 22.224 43.28 22.224 44.576C22.224 45.872 23.28 46.928 24.576 46.928C25.872 46.928 26.928 45.872 26.928 44.576ZM26.928 58.648C26.928 57.352 25.872 56.296 24.576 56.296C23.28 56.296 22.224 57.352 22.224 58.648C22.224 59.944 23.28 61 24.576 61C25.872 61 26.928 59.944 26.928 58.648ZM12.856 2.352C12.856 1.056 11.8 0 10.504 0C9.208 0 8.152 1.056 8.152 2.352C8.152 3.648 9.208 4.704 10.504 4.704C11.8 4.704 12.856 3.656 12.856 2.352ZM12.856 16.424C12.856 15.128 11.8 14.072 10.504 14.072C9.208 14.072 8.152 15.128 8.152 16.424C8.152 17.72 9.208 18.776 10.504 18.776C11.8 18.784 12.856 17.728 12.856 16.424ZM12.856 30.504C12.856 29.208 11.8 28.152 10.504 28.152C9.208 28.152 8.152 29.208 8.152 30.504C8.152 31.8 9.208 32.856 10.504 32.856C11.8 32.856 12.856 31.8 12.856 30.504ZM12.856 44.576C12.856 43.28 11.8 42.224 10.504 42.224C9.208 42.224 8.152 43.28 8.152 44.576C8.152 45.872 9.208 46.928 10.504 46.928C11.8 46.928 12.856 45.872 12.856 44.576ZM12.856 58.648C12.856 57.352 11.8 56.296 10.504 56.296C9.208 56.296 8.152 57.352 8.152 58.648C8.152 59.944 9.208 61 10.504 61C11.8 61 12.856 59.944 12.856 58.648ZM-1.216 2.352C-1.216 1.056 -2.272 0 -3.568 0C-4.864 0 -5.92 1.056 -5.92 2.352C-5.92 3.648 -4.864 4.704 -3.568 4.704C-2.272 4.704 -1.216 3.656 -1.216 2.352ZM-1.216 16.424C-1.216 15.128 -2.272 14.072 -3.568 14.072C-4.864 14.072 -5.92 15.128 -5.92 16.424C-5.92 17.72 -4.864 18.776 -3.568 18.776C-2.272 18.784 -1.216 17.728 -1.216 16.424ZM-1.216 30.504C-1.216 29.208 -2.272 28.152 -3.568 28.152C-4.864 28.152 -5.92 29.208 -5.92 30.504C-5.92 31.8 -4.864 32.856 -3.568 32.856C-2.272 32.856 -1.216 31.8 -1.216 30.504ZM-1.216 44.576C-1.216 43.28 -2.272 42.224 -3.568 42.224C-4.864 42.224 -5.92 43.28 -5.92 44.576C-5.92 45.872 -4.864 46.928 -3.568 46.928C-2.272 46.928 -1.216 45.872 -1.216 44.576ZM-1.216 58.648C-1.216 57.352 -2.272 56.296 -3.568 56.296C-4.864 56.296 -5.92 57.352 -5.92 58.648C-5.92 59.944 -4.864 61 -3.568 61C-2.272 61 -1.216 59.944 -1.216 58.648ZM-15.296 2.352C-15.296 1.056 -16.352 0 -17.648 0C-18.944 0 -20 1.056 -20 2.352C-20 3.648 -18.944 4.704 -17.648 4.704C-16.344 4.704 -15.296 3.656 -15.296 2.352ZM-15.296 16.424C-15.296 15.128 -16.352 14.072 -17.648 14.072C-18.944 14.072 -20 15.128 -20 16.424C-20 17.72 -18.944 18.776 -17.648 18.776C-16.344 18.784 -15.296 17.728 -15.296 16.424ZM-15.296 30.504C-15.296 29.208 -16.352 28.152 -17.648 28.152C-18.944 28.152 -20 29.208 -20 30.504C-20 31.8 -18.944 32.856 -17.648 32.856C-16.344 32.856 -15.296 31.8 -15.296 30.504ZM-15.296 44.576C-15.296 43.28 -16.352 42.224 -17.648 42.224C-18.944 42.224 -20 43.28 -20 44.576C-20 45.872 -18.944 46.928 -17.648 46.928C-16.344 46.928 -15.296 45.872 -15.296 44.576ZM-15.296 58.648C-15.296 57.352 -16.352 56.296 -17.648 56.296C-18.944 56.296 -20 57.352 -20 58.648C-20 59.944 -18.944 61 -17.648 61C-16.344 61 -15.296 59.944 -15.296 58.648Z" fill="black"/>
</svg>
