<svg width="210" height="107" viewBox="0 0 210 107" fill="none" xmlns="http://www.w3.org/2000/svg">
<path d="M13.2276 63.252C11.3796 63.252 9.72356 62.952 8.25956 62.352C6.79556 61.752 5.61956 60.864 4.73156 59.688C3.86756 58.512 3.41156 57.096 3.36356 55.44H9.91556C10.0116 56.376 10.3356 57.096 10.8876 57.6C11.4396 58.08 12.1596 58.32 13.0476 58.32C13.9596 58.32 14.6796 58.116 15.2076 57.708C15.7356 57.276 15.9996 56.688 15.9996 55.944C15.9996 55.32 15.7836 54.804 15.3516 54.396C14.9436 53.988 14.4276 53.652 13.8036 53.388C13.2036 53.124 12.3396 52.824 11.2116 52.488C9.57956 51.984 8.24756 51.48 7.21556 50.976C6.18356 50.472 5.29556 49.728 4.55156 48.744C3.80756 47.76 3.43556 46.476 3.43556 44.892C3.43556 42.54 4.28756 40.704 5.99156 39.384C7.69556 38.04 9.91556 37.368 12.6516 37.368C15.4356 37.368 17.6796 38.04 19.3836 39.384C21.0876 40.704 21.9996 42.552 22.1196 44.928H15.4596C15.4116 44.112 15.1116 43.476 14.5596 43.02C14.0076 42.54 13.2996 42.3 12.4356 42.3C11.6916 42.3 11.0916 42.504 10.6356 42.912C10.1796 43.296 9.95156 43.86 9.95156 44.604C9.95156 45.42 10.3356 46.056 11.1036 46.512C11.8716 46.968 13.0716 47.46 14.7036 47.988C16.3356 48.54 17.6556 49.068 18.6636 49.572C19.6956 50.076 20.5836 50.808 21.3276 51.768C22.0716 52.728 22.4436 53.964 22.4436 55.476C22.4436 56.916 22.0716 58.224 21.3276 59.4C20.6076 60.576 19.5516 61.512 18.1596 62.208C16.7676 62.904 15.1236 63.252 13.2276 63.252ZM38.58 42.696C40.884 42.696 42.732 43.464 44.124 45C45.516 46.512 46.212 48.6 46.212 51.264V63H40.092V52.092C40.092 50.748 39.744 49.704 39.048 48.96C38.352 48.216 37.416 47.844 36.24 47.844C35.064 47.844 34.128 48.216 33.432 48.96C32.736 49.704 32.388 50.748 32.388 52.092V63H26.232V36.36H32.388V45.612C33.012 44.724 33.864 44.016 34.944 43.488C36.024 42.96 37.236 42.696 38.58 42.696ZM59.6338 63.288C57.6658 63.288 55.8898 62.868 54.3058 62.028C52.7458 61.188 51.5098 59.988 50.5978 58.428C49.7098 56.868 49.2658 55.044 49.2658 52.956C49.2658 50.892 49.7218 49.08 50.6338 47.52C51.5458 45.936 52.7938 44.724 54.3778 43.884C55.9618 43.044 57.7378 42.624 59.7058 42.624C61.6738 42.624 63.4498 43.044 65.0338 43.884C66.6178 44.724 67.8658 45.936 68.7778 47.52C69.6898 49.08 70.1458 50.892 70.1458 52.956C70.1458 55.02 69.6778 56.844 68.7418 58.428C67.8298 59.988 66.5698 61.188 64.9618 62.028C63.3778 62.868 61.6018 63.288 59.6338 63.288ZM59.6338 57.96C60.8098 57.96 61.8058 57.528 62.6218 56.664C63.4618 55.8 63.8818 54.564 63.8818 52.956C63.8818 51.348 63.4738 50.112 62.6578 49.248C61.8658 48.384 60.8818 47.952 59.7058 47.952C58.5058 47.952 57.5098 48.384 56.7178 49.248C55.9258 50.088 55.5298 51.324 55.5298 52.956C55.5298 54.564 55.9138 55.8 56.6818 56.664C57.4738 57.528 58.4578 57.96 59.6338 57.96ZM79.5677 45.756C80.1677 44.82 80.9957 44.064 82.0517 43.488C83.1077 42.912 84.3437 42.624 85.7597 42.624C87.4157 42.624 88.9157 43.044 90.2597 43.884C91.6037 44.724 92.6597 45.924 93.4277 47.484C94.2197 49.044 94.6157 50.856 94.6157 52.92C94.6157 54.984 94.2197 56.808 93.4277 58.392C92.6597 59.952 91.6037 61.164 90.2597 62.028C88.9157 62.868 87.4157 63.288 85.7597 63.288C84.3677 63.288 83.1317 63 82.0517 62.424C80.9957 61.848 80.1677 61.104 79.5677 60.192V72.576H73.4117V42.912H79.5677V45.756ZM88.3517 52.92C88.3517 51.384 87.9197 50.184 87.0557 49.32C86.2157 48.432 85.1717 47.988 83.9237 47.988C82.6997 47.988 81.6557 48.432 80.7917 49.32C79.9517 50.208 79.5317 51.42 79.5317 52.956C79.5317 54.492 79.9517 55.704 80.7917 56.592C81.6557 57.48 82.6997 57.924 83.9237 57.924C85.1477 57.924 86.1917 57.48 87.0557 56.592C87.9197 55.68 88.3517 54.456 88.3517 52.92ZM106.881 57.24L111.237 42.912H117.789L110.661 63H103.065L95.9373 42.912H102.525L106.881 57.24ZM139.316 52.632C139.316 53.208 139.28 53.808 139.208 54.432H125.276C125.372 55.68 125.768 56.64 126.464 57.312C127.184 57.96 128.06 58.284 129.092 58.284C130.628 58.284 131.696 57.636 132.296 56.34H138.848C138.512 57.66 137.9 58.848 137.012 59.904C136.148 60.96 135.056 61.788 133.736 62.388C132.416 62.988 130.94 63.288 129.308 63.288C127.34 63.288 125.588 62.868 124.052 62.028C122.516 61.188 121.316 59.988 120.452 58.428C119.588 56.868 119.156 55.044 119.156 52.956C119.156 50.868 119.576 49.044 120.416 47.484C121.28 45.924 122.48 44.724 124.016 43.884C125.552 43.044 127.316 42.624 129.308 42.624C131.252 42.624 132.98 43.032 134.492 43.848C136.004 44.664 137.18 45.828 138.02 47.34C138.884 48.852 139.316 50.616 139.316 52.632ZM133.016 51.012C133.016 49.956 132.656 49.116 131.936 48.492C131.216 47.868 130.316 47.556 129.236 47.556C128.204 47.556 127.328 47.856 126.608 48.456C125.912 49.056 125.48 49.908 125.312 51.012H133.016ZM148.72 46.26C149.44 45.156 150.34 44.292 151.42 43.668C152.5 43.02 153.7 42.696 155.02 42.696V49.212H153.328C151.792 49.212 150.64 49.548 149.872 50.22C149.104 50.868 148.72 52.02 148.72 53.676V63H142.564V42.912H148.72V46.26ZM166.134 63.288C164.382 63.288 162.822 62.988 161.454 62.388C160.086 61.788 159.006 60.972 158.214 59.94C157.422 58.884 156.978 57.708 156.882 56.412H162.966C163.038 57.108 163.362 57.672 163.938 58.104C164.514 58.536 165.222 58.752 166.062 58.752C166.83 58.752 167.418 58.608 167.826 58.32C168.258 58.008 168.474 57.612 168.474 57.132C168.474 56.556 168.174 56.136 167.574 55.872C166.974 55.584 166.002 55.272 164.658 54.936C163.218 54.6 162.018 54.252 161.058 53.892C160.098 53.508 159.27 52.92 158.574 52.128C157.878 51.312 157.53 50.22 157.53 48.852C157.53 47.7 157.842 46.656 158.466 45.72C159.114 44.76 160.05 44.004 161.274 43.452C162.522 42.9 163.998 42.624 165.702 42.624C168.222 42.624 170.202 43.248 171.642 44.496C173.106 45.744 173.946 47.4 174.162 49.464H168.474C168.378 48.768 168.066 48.216 167.538 47.808C167.034 47.4 166.362 47.196 165.522 47.196C164.802 47.196 164.25 47.34 163.866 47.628C163.482 47.892 163.29 48.264 163.29 48.744C163.29 49.32 163.59 49.752 164.19 50.04C164.814 50.328 165.774 50.616 167.07 50.904C168.558 51.288 169.77 51.672 170.706 52.056C171.642 52.416 172.458 53.016 173.154 53.856C173.874 54.672 174.246 55.776 174.27 57.168C174.27 58.344 173.934 59.4 173.262 60.336C172.614 61.248 171.666 61.968 170.418 62.496C169.194 63.024 167.766 63.288 166.134 63.288ZM196.973 52.632C196.973 53.208 196.937 53.808 196.865 54.432H182.933C183.029 55.68 183.425 56.64 184.121 57.312C184.841 57.96 185.717 58.284 186.749 58.284C188.285 58.284 189.353 57.636 189.953 56.34H196.505C196.169 57.66 195.557 58.848 194.669 59.904C193.805 60.96 192.713 61.788 191.393 62.388C190.073 62.988 188.597 63.288 186.965 63.288C184.997 63.288 183.245 62.868 181.709 62.028C180.173 61.188 178.973 59.988 178.109 58.428C177.245 56.868 176.813 55.044 176.813 52.956C176.813 50.868 177.233 49.044 178.073 47.484C178.937 45.924 180.137 44.724 181.673 43.884C183.209 43.044 184.973 42.624 186.965 42.624C188.909 42.624 190.637 43.032 192.149 43.848C193.661 44.664 194.837 45.828 195.677 47.34C196.541 48.852 196.973 50.616 196.973 52.632ZM190.673 51.012C190.673 49.956 190.313 49.116 189.593 48.492C188.873 47.868 187.973 47.556 186.893 47.556C185.861 47.556 184.985 47.856 184.265 48.456C183.569 49.056 183.137 49.908 182.969 51.012H190.673ZM203.1 63.288C202.02 63.288 201.132 62.976 200.436 62.352C199.764 61.704 199.428 60.912 199.428 59.976C199.428 59.016 199.764 58.212 200.436 57.564C201.132 56.916 202.02 56.592 203.1 56.592C204.156 56.592 205.02 56.916 205.692 57.564C206.388 58.212 206.736 59.016 206.736 59.976C206.736 60.912 206.388 61.704 205.692 62.352C205.02 62.976 204.156 63.288 203.1 63.288Z" fill="black"/>
<path d="M113.868 65.0529C106.815 76.5168 98.3008 85.5571 90.2572 90.9141C82.1744 96.2972 74.742 97.8578 69.7058 94.7592C64.6696 91.6607 62.712 84.3228 63.8733 74.6812C65.029 65.0863 69.2603 53.4109 76.3135 41.9471C83.3667 30.4832 91.8809 21.443 99.9245 16.0859C108.007 10.7028 115.44 9.14225 120.476 12.2408C125.512 15.3393 127.47 22.6772 126.308 32.3188C125.153 41.9137 120.921 53.5891 113.868 65.0529Z" stroke="black"/>
<path d="M76.3134 65.0529C83.3666 76.5168 91.8808 85.5571 99.9244 90.9141C108.007 96.2972 115.44 97.8578 120.476 94.7592C125.512 91.6607 127.47 84.3228 126.308 74.6812C125.153 65.0863 120.921 53.4109 113.868 41.9471C106.815 30.4832 98.3008 21.443 90.2572 16.0859C82.1743 10.7028 74.7419 9.14225 69.7058 12.2408C64.6696 15.3393 62.712 22.6772 63.8733 32.3188C65.0289 41.9137 69.2602 53.5891 76.3134 65.0529Z" stroke="black"/>
</svg>
