<svg width="232" height="200" viewBox="0 0 232 200" fill="none" xmlns="http://www.w3.org/2000/svg">
<path d="M316.163 135.501C328.712 125.501 335.635 110.474 334.48 95.7697C332.845 75.0263 316.755 60.2996 295.918 51.5596C288.29 48.3562 280.279 45.753 273.138 41.7918C255.901 32.2266 256.703 17.2598 248.827 2.66819C227.622 -36.643 168.455 -7.97732 132.009 -17.1899C108.291 -23.1841 91.6838 -42.6597 90.8512 -63.7932C90.7912 -65.3086 90.7837 -66.9066 89.9061 -68.227C89.2985 -69.1348 88.3309 -69.8174 87.3483 -70.4251C72.009 -79.9528 48.9513 -76.4268 35.2696 -66.2014C20.1404 -54.8882 13.217 -37.4982 9.12156 -20.5884C5.85117 -7.09209 3.97595 6.94442 7.22383 20.4483C16.0299 57.1037 58.95 80.1052 76.8471 114.21C80.71 121.577 83.3803 129.417 87.9634 136.469C99.6198 154.399 122.145 164.977 144.618 171.804C172.326 180.221 203.44 184.242 230.773 174.962C248.28 169.021 263.042 158.022 280.669 152.351C292.948 148.382 306.539 143.168 316.163 135.501Z" fill="#DD5A34"/>
<path d="M120.435 -44.7924C121.287 -23.1559 138.26 -3.34634 162.347 2.74099C171.621 5.08517 182.286 5.00933 193.309 4.23027C198.026 3.89689 202.83 3.43275 207.631 2.96889C208.446 2.89018 209.261 2.81147 210.075 2.73342C215.693 2.1947 221.292 1.68633 226.767 1.41233C248.734 0.31292 268.234 3.01638 278.53 22.1044L278.53 22.1046C280.463 25.6857 281.87 29.3009 283.167 32.8931C283.456 33.6924 283.74 34.4926 284.023 35.2916C285.006 38.0634 285.985 40.8208 287.138 43.4749C290.138 50.3775 294.374 56.7102 303.236 61.6277L303.721 60.7533L303.236 61.6277C308.25 64.4094 313.727 66.5449 319.13 68.6516C321.487 69.5705 323.83 70.4839 326.114 71.443L326.114 71.4432C346.798 80.1189 362.474 94.6094 364.066 114.809C365.193 129.15 358.439 143.866 346.123 153.68C336.653 161.225 323.217 166.394 310.944 170.361C302.039 173.226 293.871 177.433 285.798 181.629L285.218 181.931C277.319 186.038 269.496 190.105 261.034 192.977L261.356 193.924L261.034 192.977C233.989 202.159 203.115 198.2 175.491 189.808C153.056 182.993 130.836 172.5 119.385 154.885C117.135 151.423 115.346 147.755 113.627 144.003C113.228 143.131 112.832 142.253 112.435 141.372C111.129 138.48 109.809 135.555 108.316 132.707L108.316 132.707C100.537 117.884 88.0771 105.141 75.8226 92.6088C73.846 90.5874 71.8747 88.5714 69.9293 86.5531C55.8535 71.9494 43.1116 57.2101 38.7792 39.1761L38.7791 39.1758C35.587 25.9037 37.4186 12.0532 40.6764 -1.39151L40.6765 -1.39162C44.755 -18.2314 51.6059 -35.3379 66.4513 -46.439C73.1322 -51.4322 82.141 -54.8123 91.3729 -55.7645C100.606 -56.7168 109.969 -55.2324 117.404 -50.6142L117.405 -50.6132C118.38 -50.0107 119.18 -49.4233 119.658 -48.7101C120.321 -47.7104 120.369 -46.492 120.428 -44.9672C120.43 -44.9093 120.433 -44.8512 120.435 -44.7924ZM120.435 -44.7924L121.434 -44.8318M120.435 -44.7924L121.434 -44.8318M121.434 -44.8318C121.431 -44.9218 121.427 -45.0121 121.424 -45.1026C121.37 -46.5361 121.315 -48.0236 120.489 -49.2656C119.882 -50.1733 118.914 -50.856 117.931 -51.4637L279.41 21.6296C265.773 -3.65302 236.433 -0.818367 207.533 1.97372C191.498 3.52296 175.598 5.05909 162.592 1.77148C138.874 -4.22272 122.267 -23.6983 121.434 -44.8318Z" stroke="black" stroke-width="2"/>
<path d="M84.3471 -49.686C85.1995 -28.0494 102.172 -8.23989 126.259 -2.15256C135.533 0.19162 146.198 0.115772 157.221 -0.663288C161.938 -0.996666 166.742 -1.46081 171.543 -1.92466C172.358 -2.00338 173.173 -2.08208 173.987 -2.16014C179.605 -2.69885 185.204 -3.20723 190.679 -3.48122C212.646 -4.58064 232.146 -1.87717 242.442 17.2108L242.443 17.211C244.375 20.7922 245.782 24.4073 247.079 27.9995C247.368 28.7988 247.652 29.599 247.935 30.398C248.918 33.1698 249.897 35.9272 251.05 38.5814C254.05 45.484 258.286 51.8166 267.148 56.7341L267.633 55.8597L267.148 56.7342C272.162 59.5158 277.639 61.6513 283.042 63.758C285.399 64.6769 287.742 65.5903 290.026 66.5495L290.026 66.5496C310.711 75.2254 326.386 89.7159 327.978 109.916C329.105 124.256 322.351 138.972 310.035 148.787C300.565 156.331 287.129 161.501 274.856 165.467C265.951 168.333 257.783 172.539 249.71 176.736L249.13 177.037C241.231 181.144 233.408 185.212 224.947 188.083L225.268 189.03L224.946 188.083C197.901 197.266 167.028 193.307 139.403 184.915C116.968 178.099 94.7481 167.606 83.297 149.992C81.047 146.53 79.2583 142.861 77.5395 139.109C77.1403 138.237 76.7441 137.36 76.3466 136.479C75.0413 133.587 73.7211 130.661 72.2278 127.813L72.2277 127.813C64.449 112.99 51.9892 100.248 39.7347 87.7153C37.7581 85.6938 35.7868 83.6779 33.8414 81.6595C19.7656 67.0559 7.02374 52.3165 2.69128 34.2825L2.69122 34.2823C-0.50094 21.0101 1.33067 7.15965 4.58855 -6.28506L4.58857 -6.28517C8.66711 -23.125 15.518 -40.2315 30.3634 -51.3325C37.0443 -56.3257 46.0531 -59.7059 55.2851 -60.6581C64.518 -61.6104 73.8807 -60.1259 81.3158 -55.5078L81.3175 -55.5067C82.2917 -54.9043 83.0921 -54.3168 83.5697 -53.6037C84.2332 -52.6039 84.2808 -51.3855 84.3403 -49.8607C84.3425 -49.8028 84.3448 -49.7447 84.3471 -49.686ZM84.3471 -49.686L85.3463 -49.7253M84.3471 -49.686L85.3463 -49.7253M85.3463 -49.7253C85.3428 -49.8154 85.3394 -49.9057 85.336 -49.9962C85.2824 -51.4296 85.2267 -52.9172 84.4012 -54.1591C83.7937 -55.0669 82.826 -55.7496 81.8434 -56.3572L243.323 16.7361C229.685 -8.54657 200.345 -5.71192 171.445 -2.91984C155.41 -1.3706 139.51 0.165539 126.504 -3.12207C102.786 -9.11628 86.1789 -28.5918 85.3463 -49.7253Z" stroke="#DD5A34" stroke-width="2"/>
</svg>
