<svg width="225" height="900" viewBox="0 0 225 900" fill="none" xmlns="http://www.w3.org/2000/svg">
<path d="M316.163 130.501C328.712 120.501 335.635 105.474 334.48 90.7697C332.845 70.0263 316.755 55.2996 295.918 46.5596C288.29 43.3562 280.279 40.753 273.138 36.7918C255.901 27.2266 256.703 12.2598 248.827 -2.33181C227.622 -41.643 168.455 -12.9773 132.009 -22.1899C108.291 -28.1841 91.6838 -47.6597 90.8512 -68.7932C90.7912 -70.3086 90.7837 -71.9066 89.9061 -73.227C89.2985 -74.1348 88.3309 -74.8174 87.3483 -75.4251C72.009 -84.9528 48.9513 -81.4268 35.2696 -71.2014C20.1404 -59.8882 13.217 -42.4982 9.12156 -25.5884C5.85117 -12.0921 3.97595 1.94442 7.22383 15.4483C16.0299 52.1037 58.95 75.1052 76.8471 109.21C80.71 116.577 83.3803 124.417 87.9634 131.469C99.6198 149.399 122.145 159.977 144.618 166.804C172.326 175.221 203.44 179.242 230.773 169.962C248.28 164.021 263.042 153.022 280.669 147.351C292.948 143.382 306.539 138.168 316.163 130.501Z" fill="#5E54F1"/>
<path d="M120.435 -49.7925C121.287 -28.1559 138.26 -8.3464 162.346 -2.25907C171.62 0.0851135 182.285 0.0092659 193.309 -0.769794C198.026 -1.10317 202.83 -1.56731 207.631 -2.03117C208.446 -2.10988 209.26 -2.18859 210.075 -2.26664C215.693 -2.80536 221.292 -3.31373 226.766 -3.58773C248.734 -4.68714 268.234 -1.98368 278.53 17.1043L278.53 17.1045C280.463 20.6856 281.87 24.3008 283.167 27.893C283.455 28.6923 283.739 29.4925 284.023 30.2915C285.006 33.0633 285.984 35.8207 287.138 38.4749C290.138 45.3775 294.374 51.7101 303.235 56.6276L303.721 55.7532L303.235 56.6277C308.25 59.4093 313.727 61.5448 319.13 63.6515C321.487 64.5704 323.829 65.4838 326.114 66.443L326.114 66.4431C346.798 75.1189 362.474 89.6094 364.066 109.809C365.192 124.15 358.438 138.866 346.122 148.68C336.653 156.225 323.216 161.394 310.944 165.361C302.039 168.226 293.871 172.433 285.797 176.629L285.217 176.931C277.318 181.038 269.495 185.105 261.034 187.977L261.356 188.924L261.034 187.977C233.989 197.159 203.115 193.2 175.491 184.808C153.056 177.993 130.836 167.499 119.385 149.885C117.135 146.423 115.346 142.755 113.627 139.002C113.228 138.131 112.832 137.253 112.434 136.372C111.129 133.48 109.809 130.555 108.315 127.707L108.315 127.707C100.537 112.884 88.0768 100.141 75.8223 87.6088C73.8457 85.5873 71.8745 83.5714 69.9291 81.553C55.8532 66.9494 43.1114 52.21 38.7789 34.176L38.7789 34.1758C35.5867 20.9036 37.4183 7.05315 40.6762 -6.39157L40.6762 -6.39168C44.7548 -23.2315 51.6056 -40.338 66.4511 -51.439C73.132 -56.4322 82.1407 -59.8124 91.3727 -60.7646C100.606 -61.7169 109.968 -60.2324 117.403 -55.6143L117.405 -55.6133C118.379 -55.0108 119.18 -54.4233 119.657 -53.7102C120.321 -52.7104 120.368 -51.492 120.428 -49.9672C120.43 -49.9093 120.432 -49.8512 120.435 -49.7925ZM120.435 -49.7925L121.434 -49.8318M120.435 -49.7925L121.434 -49.8318M121.434 -49.8318C121.43 -49.9219 121.427 -50.0122 121.424 -50.1027C121.37 -51.5361 121.314 -53.0237 120.489 -54.2656C119.881 -55.1734 118.914 -55.8561 117.931 -56.4638L279.41 16.6296C265.772 -8.65308 236.432 -5.81843 207.533 -3.02634C191.497 -1.4771 175.598 0.0590324 162.591 -3.22858C138.874 -9.22278 122.267 -28.6983 121.434 -49.8318Z" stroke="black" stroke-width="2"/>
<path d="M84.3471 -54.6857C85.1995 -33.0492 102.172 -13.2397 126.259 -7.15232C135.533 -4.80814 146.198 -4.88398 157.221 -5.66304C161.938 -5.99642 166.742 -6.46056 171.543 -6.92442C172.358 -7.00313 173.173 -7.08184 173.987 -7.15989C179.605 -7.69861 185.204 -8.20698 190.679 -8.48098C212.646 -9.58039 232.146 -6.87693 242.442 12.2111L242.443 12.2113C244.375 15.7924 245.782 19.4076 247.079 22.9998C247.368 23.799 247.652 24.5993 247.935 25.3983C248.918 28.1701 249.897 30.9275 251.05 33.5816C254.05 40.4842 258.286 46.8169 267.148 51.7344L267.633 50.86L267.148 51.7344C272.162 54.5161 277.639 56.6516 283.042 58.7582C285.399 59.6771 287.742 60.5906 290.026 61.5497L290.026 61.5499C310.711 70.2256 326.386 84.7161 327.978 104.916C329.105 119.257 322.351 133.972 310.035 143.787C300.565 151.331 287.129 156.501 274.856 160.467C265.951 163.333 257.783 167.539 249.71 171.736L249.13 172.038C241.231 176.144 233.408 180.212 224.947 183.083L225.268 184.03L224.946 183.083C197.901 192.266 167.028 188.307 139.403 179.915C116.968 173.1 94.7481 162.606 83.297 144.992C81.047 141.53 79.2583 137.862 77.5395 134.109C77.1403 133.238 76.7441 132.36 76.3466 131.479C75.0413 128.587 73.7211 125.661 72.2278 122.814L72.2277 122.813C64.449 107.99 51.9892 95.248 39.7347 82.7155C37.7581 80.6941 35.7868 78.6781 33.8414 76.6598C19.7656 62.0561 7.02374 47.3168 2.69128 29.2828L2.69122 29.2825C-0.50094 16.0104 1.33067 2.1599 4.58855 -11.2848L4.58857 -11.2849C8.66711 -28.1248 15.518 -45.2312 30.3634 -56.3323C37.0443 -61.3255 46.0531 -64.7056 55.2851 -65.6578C64.518 -66.6102 73.8807 -65.1257 81.3158 -60.5075L81.3175 -60.5065C82.2917 -59.904 83.0921 -59.3166 83.5697 -58.6034C84.2332 -57.6037 84.2808 -56.3853 84.3403 -54.8605C84.3425 -54.8026 84.3448 -54.7445 84.3471 -54.6857ZM84.3471 -54.6857L85.3463 -54.7251M84.3471 -54.6857L85.3463 -54.7251M85.3463 -54.7251C85.3428 -54.8151 85.3394 -54.9054 85.336 -54.9959C85.2824 -56.4294 85.2267 -57.9169 84.4012 -59.1589C83.7937 -60.0666 82.826 -60.7493 81.8434 -61.357L243.323 11.7363C229.685 -13.5463 200.345 -10.7117 171.445 -7.91959C155.41 -6.37035 139.51 -4.83422 126.504 -8.12183C102.786 -14.116 86.1789 -33.5916 85.3463 -54.7251Z" stroke="#5E54F1" stroke-width="2"/>
<path d="M237.838 831.323C236.096 831.323 234.677 829.904 234.677 828.162C234.677 826.42 236.096 825 237.838 825C239.58 825 241 826.42 241 828.162C241 829.904 239.58 831.323 237.838 831.323ZM241 847.078C241 845.336 239.58 843.916 237.838 843.916C236.096 843.916 234.677 845.336 234.677 847.078C234.677 848.82 236.096 850.24 237.838 850.24C239.58 850.251 241 848.831 241 847.078ZM241 866.005C241 864.263 239.58 862.844 237.838 862.844C236.096 862.844 234.677 864.263 234.677 866.005C234.677 867.748 236.096 869.167 237.838 869.167C239.58 869.167 241 867.748 241 866.005ZM241 884.922C241 883.18 239.58 881.76 237.838 881.76C236.096 881.76 234.677 883.18 234.677 884.922C234.677 886.664 236.096 888.084 237.838 888.084C239.58 888.084 241 886.664 241 884.922ZM241 903.838C241 902.096 239.58 900.677 237.838 900.677C236.096 900.677 234.677 902.096 234.677 903.838C234.677 905.58 236.096 907 237.838 907C239.58 907 241 905.58 241 903.838ZM222.084 828.162C222.084 826.42 220.664 825 218.922 825C217.18 825 215.76 826.42 215.76 828.162C215.76 829.904 217.18 831.323 218.922 831.323C220.664 831.323 222.084 829.915 222.084 828.162ZM222.084 847.078C222.084 845.336 220.664 843.916 218.922 843.916C217.18 843.916 215.76 845.336 215.76 847.078C215.76 848.82 217.18 850.24 218.922 850.24C220.664 850.251 222.084 848.831 222.084 847.078ZM222.084 866.005C222.084 864.263 220.664 862.844 218.922 862.844C217.18 862.844 215.76 864.263 215.76 866.005C215.76 867.748 217.18 869.167 218.922 869.167C220.664 869.167 222.084 867.748 222.084 866.005ZM222.084 884.922C222.084 883.18 220.664 881.76 218.922 881.76C217.18 881.76 215.76 883.18 215.76 884.922C215.76 886.664 217.18 888.084 218.922 888.084C220.664 888.084 222.084 886.664 222.084 884.922ZM222.084 903.838C222.084 902.096 220.664 900.677 218.922 900.677C217.18 900.677 215.76 902.096 215.76 903.838C215.76 905.58 217.18 907 218.922 907C220.664 907 222.084 905.58 222.084 903.838ZM203.167 828.162C203.167 826.42 201.748 825 200.005 825C198.263 825 196.844 826.42 196.844 828.162C196.844 829.904 198.263 831.323 200.005 831.323C201.748 831.323 203.167 829.915 203.167 828.162ZM203.167 847.078C203.167 845.336 201.748 843.916 200.005 843.916C198.263 843.916 196.844 845.336 196.844 847.078C196.844 848.82 198.263 850.24 200.005 850.24C201.748 850.251 203.167 848.831 203.167 847.078ZM203.167 866.005C203.167 864.263 201.748 862.844 200.005 862.844C198.263 862.844 196.844 864.263 196.844 866.005C196.844 867.748 198.263 869.167 200.005 869.167C201.748 869.167 203.167 867.748 203.167 866.005ZM203.167 884.922C203.167 883.18 201.748 881.76 200.005 881.76C198.263 881.76 196.844 883.18 196.844 884.922C196.844 886.664 198.263 888.084 200.005 888.084C201.748 888.084 203.167 886.664 203.167 884.922ZM203.167 903.838C203.167 902.096 201.748 900.677 200.005 900.677C198.263 900.677 196.844 902.096 196.844 903.838C196.844 905.58 198.263 907 200.005 907C201.748 907 203.167 905.58 203.167 903.838ZM184.251 828.162C184.251 826.42 182.831 825 181.089 825C179.347 825 177.927 826.42 177.927 828.162C177.927 829.904 179.347 831.323 181.089 831.323C182.831 831.323 184.251 829.915 184.251 828.162ZM184.251 847.078C184.251 845.336 182.831 843.916 181.089 843.916C179.347 843.916 177.927 845.336 177.927 847.078C177.927 848.82 179.347 850.24 181.089 850.24C182.831 850.251 184.251 848.831 184.251 847.078ZM184.251 866.005C184.251 864.263 182.831 862.844 181.089 862.844C179.347 862.844 177.927 864.263 177.927 866.005C177.927 867.748 179.347 869.167 181.089 869.167C182.831 869.167 184.251 867.748 184.251 866.005ZM184.251 884.922C184.251 883.18 182.831 881.76 181.089 881.76C179.347 881.76 177.927 883.18 177.927 884.922C177.927 886.664 179.347 888.084 181.089 888.084C182.831 888.084 184.251 886.664 184.251 884.922ZM184.251 903.838C184.251 902.096 182.831 900.677 181.089 900.677C179.347 900.677 177.927 902.096 177.927 903.838C177.927 905.58 179.347 907 181.089 907C182.831 907 184.251 905.58 184.251 903.838ZM165.323 828.162C165.323 826.42 163.904 825 162.162 825C160.42 825 159 826.42 159 828.162C159 829.904 160.42 831.323 162.162 831.323C163.915 831.323 165.323 829.915 165.323 828.162ZM165.323 847.078C165.323 845.336 163.904 843.916 162.162 843.916C160.42 843.916 159 845.336 159 847.078C159 848.82 160.42 850.24 162.162 850.24C163.915 850.251 165.323 848.831 165.323 847.078ZM165.323 866.005C165.323 864.263 163.904 862.844 162.162 862.844C160.42 862.844 159 864.263 159 866.005C159 867.748 160.42 869.167 162.162 869.167C163.915 869.167 165.323 867.748 165.323 866.005ZM165.323 884.922C165.323 883.18 163.904 881.76 162.162 881.76C160.42 881.76 159 883.18 159 884.922C159 886.664 160.42 888.084 162.162 888.084C163.915 888.084 165.323 886.664 165.323 884.922ZM165.323 903.838C165.323 902.096 163.904 900.677 162.162 900.677C160.42 900.677 159 902.096 159 903.838C159 905.58 160.42 907 162.162 907C163.915 907 165.323 905.58 165.323 903.838Z" fill="black"/>
</svg>
