<svg width="289" height="593" viewBox="0 0 289 593" fill="none" xmlns="http://www.w3.org/2000/svg">
<path d="M238.629 638.372C251.178 628.371 258.102 613.344 256.946 598.64C255.311 577.897 239.222 563.17 218.384 554.43C210.756 551.227 202.745 548.624 195.604 544.662C178.367 535.097 179.17 520.13 171.294 505.539C150.089 466.228 90.9217 494.893 54.4749 485.681C30.7571 479.686 14.1501 460.211 13.3175 439.077C13.2575 437.562 13.25 435.964 12.3724 434.644C11.7649 433.736 10.7972 433.053 9.81462 432.445C-5.5247 422.918 -28.5824 426.444 -42.264 436.669C-57.3933 447.982 -64.3167 465.372 -68.4121 482.282C-71.6825 495.779 -73.5577 509.815 -70.3099 523.319C-61.5038 559.974 -18.5837 582.976 -0.686623 617.081C3.17634 624.448 5.84666 632.287 10.4297 639.339C22.0861 657.269 44.6112 667.848 67.0839 674.674C94.7922 683.092 125.906 687.113 153.239 677.833C170.746 671.891 185.508 660.893 203.135 655.221C215.414 651.253 229.006 646.039 238.629 638.372Z" fill="#5E54F1"/>
<path d="M15.9882 417.709C16.8406 439.345 33.8135 459.155 57.8998 465.242C67.1738 467.586 77.8388 467.511 88.8623 466.731C93.5795 466.398 98.3835 465.934 103.185 465.47C103.999 465.391 104.814 465.313 105.628 465.235C111.247 464.696 116.845 464.188 122.32 463.914C144.288 462.814 163.787 465.518 174.084 484.606L174.084 484.606C176.017 488.187 177.423 491.802 178.72 495.394C179.009 496.194 179.293 496.994 179.576 497.793C180.56 500.565 181.538 503.322 182.691 505.976C185.691 512.879 189.927 519.211 198.789 524.129L199.274 523.254L198.789 524.129C203.803 526.911 209.28 529.046 214.684 531.153C217.04 532.072 219.383 532.985 221.667 533.944L221.667 533.944C242.352 542.62 258.027 557.111 259.619 577.311C260.746 591.651 253.992 606.367 241.676 616.182C232.207 623.726 218.77 628.895 206.497 632.862C197.592 635.727 189.424 639.934 181.351 644.131L180.771 644.432C172.872 648.539 165.049 652.606 156.588 655.478L156.909 656.425L156.588 655.478C129.542 664.66 98.6687 660.702 71.0445 652.31C48.6094 645.494 26.3892 635.001 14.9381 617.386C12.6881 613.924 10.8994 610.256 9.18059 606.504C8.78137 605.632 8.38525 604.754 7.98774 603.874C6.6824 600.981 5.3622 598.056 3.86893 595.208L3.86878 595.208C-3.90985 580.385 -16.3697 567.643 -28.6242 555.11C-30.6008 553.089 -32.5721 551.073 -34.5175 549.054C-48.5933 534.451 -61.3352 519.711 -65.6676 501.677L-65.6677 501.677C-68.8598 488.405 -67.0282 474.554 -63.7703 461.11L-63.7703 461.11C-59.6918 444.27 -52.8409 427.163 -37.9955 416.062C-31.3146 411.069 -22.3058 407.689 -13.0738 406.737C-3.84087 405.784 5.52181 407.269 12.9569 411.887L12.9586 411.888C13.9328 412.491 14.7332 413.078 15.2108 413.791C15.8743 414.791 15.9219 416.009 15.9814 417.534C15.9836 417.592 15.9859 417.65 15.9882 417.709ZM15.9882 417.709L16.9874 417.669M15.9882 417.709L16.9874 417.669M16.9874 417.669C16.9839 417.579 16.9805 417.489 16.9771 417.399C16.9235 415.965 16.8678 414.478 16.0423 413.236C15.4348 412.328 14.4672 411.645 13.4845 411.038L174.964 484.131C161.326 458.848 131.986 461.683 103.086 464.475C87.051 466.024 71.1512 467.56 58.1448 464.273C34.427 458.278 17.8201 438.803 16.9874 417.669Z" stroke="black" stroke-width="2"/>
<path d="M43.5129 428.719C44.3653 450.355 61.3381 470.165 85.4244 476.252C94.6984 478.596 105.363 478.52 116.387 477.741C121.104 477.408 125.908 476.944 130.709 476.48C131.524 476.401 132.339 476.322 133.153 476.244C138.771 475.706 144.37 475.197 149.845 474.923C171.812 473.824 191.312 476.527 201.608 495.615L201.608 495.616C203.541 499.197 204.948 502.812 206.245 506.404C206.534 507.203 206.817 508.004 207.101 508.803C208.084 511.574 209.062 514.332 210.216 516.986C213.216 523.889 217.452 530.221 226.313 535.139L226.799 534.264L226.314 535.139C231.328 537.92 236.805 540.056 242.208 542.163C244.565 543.081 246.908 543.995 249.192 544.954L249.192 544.954C269.876 553.63 285.552 568.12 287.144 588.32C288.271 602.661 281.517 617.377 269.201 627.191C259.731 634.736 246.294 639.905 234.022 643.872C225.117 646.737 216.949 650.944 208.875 655.14L208.296 655.442C200.396 659.549 192.574 663.616 184.112 666.488L184.434 667.435L184.112 666.488C157.067 675.67 126.193 671.711 98.5692 663.319C76.1341 656.504 53.9139 646.01 42.4628 628.396C40.2128 624.934 38.4241 621.266 36.7052 617.513C36.306 616.642 35.9099 615.764 35.5124 614.883C34.2071 611.991 32.8869 609.066 31.3936 606.218L31.3934 606.218C23.6148 591.395 11.155 578.652 -1.09955 566.12C-3.07615 564.098 -5.04741 562.082 -6.99282 560.064C-21.0687 545.46 -33.8105 530.721 -38.1429 512.687L-38.143 512.687C-41.3352 499.415 -39.5036 485.564 -36.2457 472.119L-36.2457 472.119C-32.1671 455.28 -25.3162 438.173 -10.4708 427.072C-3.78992 422.079 5.21884 418.699 14.4508 417.746C23.6838 416.794 33.0465 418.279 40.4816 422.897L40.4832 422.898C41.4574 423.5 42.2579 424.088 42.7354 424.801C43.399 425.801 43.4465 427.019 43.506 428.544C43.5083 428.602 43.5106 428.66 43.5129 428.719ZM43.5129 428.719L44.5121 428.679M43.5129 428.719L44.5121 428.679M44.5121 428.679C44.5085 428.589 44.5052 428.499 44.5018 428.408C44.4481 426.975 44.3925 425.487 43.567 424.245C42.9594 423.338 41.9918 422.655 41.0092 422.047L202.488 495.141C188.85 469.858 159.51 472.693 130.611 475.485C114.576 477.034 98.6759 478.57 85.6695 475.282C61.9517 469.288 45.3447 449.813 44.5121 428.679Z" stroke="#5E54F1" stroke-width="2"/>
<path d="M45.648 4.704C44.352 4.704 43.296 3.648 43.296 2.352C43.296 1.056 44.352 0 45.648 0C46.944 0 48 1.056 48 2.352C48 3.648 46.944 4.704 45.648 4.704ZM48 16.424C48 15.128 46.944 14.072 45.648 14.072C44.352 14.072 43.296 15.128 43.296 16.424C43.296 17.72 44.352 18.776 45.648 18.776C46.944 18.784 48 17.728 48 16.424ZM48 30.504C48 29.208 46.944 28.152 45.648 28.152C44.352 28.152 43.296 29.208 43.296 30.504C43.296 31.8 44.352 32.856 45.648 32.856C46.944 32.856 48 31.8 48 30.504ZM48 44.576C48 43.28 46.944 42.224 45.648 42.224C44.352 42.224 43.296 43.28 43.296 44.576C43.296 45.872 44.352 46.928 45.648 46.928C46.944 46.928 48 45.872 48 44.576ZM48 58.648C48 57.352 46.944 56.296 45.648 56.296C44.352 56.296 43.296 57.352 43.296 58.648C43.296 59.944 44.352 61 45.648 61C46.944 61 48 59.944 48 58.648ZM33.928 2.352C33.928 1.056 32.872 0 31.576 0C30.28 0 29.224 1.056 29.224 2.352C29.224 3.648 30.28 4.704 31.576 4.704C32.872 4.704 33.928 3.656 33.928 2.352ZM33.928 16.424C33.928 15.128 32.872 14.072 31.576 14.072C30.28 14.072 29.224 15.128 29.224 16.424C29.224 17.72 30.28 18.776 31.576 18.776C32.872 18.784 33.928 17.728 33.928 16.424ZM33.928 30.504C33.928 29.208 32.872 28.152 31.576 28.152C30.28 28.152 29.224 29.208 29.224 30.504C29.224 31.8 30.28 32.856 31.576 32.856C32.872 32.856 33.928 31.8 33.928 30.504ZM33.928 44.576C33.928 43.28 32.872 42.224 31.576 42.224C30.28 42.224 29.224 43.28 29.224 44.576C29.224 45.872 30.28 46.928 31.576 46.928C32.872 46.928 33.928 45.872 33.928 44.576ZM33.928 58.648C33.928 57.352 32.872 56.296 31.576 56.296C30.28 56.296 29.224 57.352 29.224 58.648C29.224 59.944 30.28 61 31.576 61C32.872 61 33.928 59.944 33.928 58.648ZM19.856 2.352C19.856 1.056 18.8 0 17.504 0C16.208 0 15.152 1.056 15.152 2.352C15.152 3.648 16.208 4.704 17.504 4.704C18.8 4.704 19.856 3.656 19.856 2.352ZM19.856 16.424C19.856 15.128 18.8 14.072 17.504 14.072C16.208 14.072 15.152 15.128 15.152 16.424C15.152 17.72 16.208 18.776 17.504 18.776C18.8 18.784 19.856 17.728 19.856 16.424ZM19.856 30.504C19.856 29.208 18.8 28.152 17.504 28.152C16.208 28.152 15.152 29.208 15.152 30.504C15.152 31.8 16.208 32.856 17.504 32.856C18.8 32.856 19.856 31.8 19.856 30.504ZM19.856 44.576C19.856 43.28 18.8 42.224 17.504 42.224C16.208 42.224 15.152 43.28 15.152 44.576C15.152 45.872 16.208 46.928 17.504 46.928C18.8 46.928 19.856 45.872 19.856 44.576ZM19.856 58.648C19.856 57.352 18.8 56.296 17.504 56.296C16.208 56.296 15.152 57.352 15.152 58.648C15.152 59.944 16.208 61 17.504 61C18.8 61 19.856 59.944 19.856 58.648ZM5.784 2.352C5.784 1.056 4.728 0 3.432 0C2.136 0 1.08 1.056 1.08 2.352C1.08 3.648 2.136 4.704 3.432 4.704C4.728 4.704 5.784 3.656 5.784 2.352ZM5.784 16.424C5.784 15.128 4.728 14.072 3.432 14.072C2.136 14.072 1.08 15.128 1.08 16.424C1.08 17.72 2.136 18.776 3.432 18.776C4.728 18.784 5.784 17.728 5.784 16.424ZM5.784 30.504C5.784 29.208 4.728 28.152 3.432 28.152C2.136 28.152 1.08 29.208 1.08 30.504C1.08 31.8 2.136 32.856 3.432 32.856C4.728 32.856 5.784 31.8 5.784 30.504ZM5.784 44.576C5.784 43.28 4.728 42.224 3.432 42.224C2.136 42.224 1.08 43.28 1.08 44.576C1.08 45.872 2.136 46.928 3.432 46.928C4.728 46.928 5.784 45.872 5.784 44.576ZM5.784 58.648C5.784 57.352 4.728 56.296 3.432 56.296C2.136 56.296 1.08 57.352 1.08 58.648C1.08 59.944 2.136 61 3.432 61C4.728 61 5.784 59.944 5.784 58.648ZM-8.296 2.352C-8.296 1.056 -9.352 0 -10.648 0C-11.944 0 -13 1.056 -13 2.352C-13 3.648 -11.944 4.704 -10.648 4.704C-9.344 4.704 -8.296 3.656 -8.296 2.352ZM-8.296 16.424C-8.296 15.128 -9.352 14.072 -10.648 14.072C-11.944 14.072 -13 15.128 -13 16.424C-13 17.72 -11.944 18.776 -10.648 18.776C-9.344 18.784 -8.296 17.728 -8.296 16.424ZM-8.296 30.504C-8.296 29.208 -9.352 28.152 -10.648 28.152C-11.944 28.152 -13 29.208 -13 30.504C-13 31.8 -11.944 32.856 -10.648 32.856C-9.344 32.856 -8.296 31.8 -8.296 30.504ZM-8.296 44.576C-8.296 43.28 -9.352 42.224 -10.648 42.224C-11.944 42.224 -13 43.28 -13 44.576C-13 45.872 -11.944 46.928 -10.648 46.928C-9.344 46.928 -8.296 45.872 -8.296 44.576ZM-8.296 58.648C-8.296 57.352 -9.352 56.296 -10.648 56.296C-11.944 56.296 -13 57.352 -13 58.648C-13 59.944 -11.944 61 -10.648 61C-9.344 61 -8.296 59.944 -8.296 58.648Z" fill="black"/>
</svg>
