<svg width="59" height="59" viewBox="0 0 59 59" fill="none" xmlns="http://www.w3.org/2000/svg">
<path d="M7.375 27.0417H27.0417V7.375H7.375V27.0417ZM12.2917 12.2917H22.125V22.125H12.2917V12.2917ZM7.375 51.625H27.0417V31.9583H7.375V51.625ZM12.2917 36.875H22.125V46.7083H12.2917V36.875ZM31.9583 7.375V27.0417H51.625V7.375H31.9583ZM46.7083 22.125H36.875V12.2917H46.7083V22.125ZM31.9829 31.9583H36.8996V36.875H31.9829V31.9583ZM36.8996 36.875H41.8162V41.7917H36.8996V36.875ZM31.9829 41.7917H36.8996V46.7083H31.9829V41.7917ZM41.8162 41.7917H46.7329V46.7083H41.8162V41.7917ZM46.7329 46.7083H51.6496V51.625H46.7329V46.7083ZM36.8996 46.7083H41.8162V51.625H36.8996V46.7083ZM41.8162 31.9583H46.7329V36.875H41.8162V31.9583ZM46.7329 36.875H51.6496V41.7917H46.7329V36.875Z" fill="black"/>
</svg>
