<svg width="232" height="200" viewBox="0 0 232 200" fill="none" xmlns="http://www.w3.org/2000/svg">
<path d="M248.387 2.90569L248.387 2.90556C237.938 -16.4662 218.142 -19.1486 196.159 -18.0485C190.672 -17.7738 185.063 -17.2645 179.444 -16.7257C178.629 -16.6476 177.814 -16.5689 176.999 -16.4901C172.198 -16.0262 167.401 -15.5628 162.691 -15.2299C151.677 -14.4516 141.079 -14.3815 131.886 -16.7052C107.984 -22.746 91.1941 -42.3885 90.3516 -63.7735M248.387 2.90569L90.8512 -63.7932M248.387 2.90569C250.338 6.5202 251.755 10.1635 253.054 13.7618C253.345 14.5674 253.631 15.3718 253.915 16.1733C254.897 18.9422 255.868 21.6776 257.014 24.3142C259.983 31.1462 264.155 37.379 272.895 42.229L273.138 41.7918L272.895 42.2291C277.879 44.9938 283.304 47.1087 288.692 49.2094C291.057 50.1313 293.414 51.0505 295.724 52.0206L295.918 51.5596L295.725 52.0207C316.485 60.7285 332.368 75.3371 333.982 95.8088C335.122 110.331 328.284 125.202 315.851 135.11C306.305 142.716 292.791 147.907 280.516 151.875C271.656 154.725 263.523 158.913 255.445 163.112L254.852 163.42C246.963 167.522 239.11 171.605 230.612 174.489C203.423 183.72 172.429 179.73 144.763 171.325C122.309 164.504 99.9363 153.968 88.3826 136.196C86.1119 132.702 84.3109 129.007 82.5898 125.249C82.188 124.372 81.7901 123.491 81.3916 122.608C80.0875 119.718 78.7756 116.811 77.2899 113.978L77.2898 113.978C69.5482 99.2251 57.1472 86.5418 44.8892 74.0047C42.9111 71.9816 40.9368 69.9622 38.9863 67.9386C24.9144 53.3391 12.0777 38.5123 7.71 20.3315L7.70997 20.3313C4.48994 6.94334 6.34336 -7.00015 9.60749 -20.4707L9.60751 -20.4707C13.6945 -37.3456 20.5816 -54.5938 35.569 -65.8009M248.387 2.90569L35.569 -65.8009M90.3516 -63.7735L90.8512 -63.7932M90.3516 -63.7735C90.3516 -63.7735 90.3516 -63.7735 90.3516 -63.7734L90.8512 -63.7932M90.3516 -63.7735C90.3485 -63.8513 90.3456 -63.9287 90.3426 -64.0058C90.2863 -65.4772 90.2345 -66.8292 89.4901 -67.9496M90.8512 -63.7932C90.8477 -63.8832 90.8443 -63.9735 90.8409 -64.064C90.7873 -65.4975 90.7316 -66.985 89.9061 -68.227M89.4901 -67.9496C89.4903 -67.9494 89.4904 -67.9491 89.4906 -67.9489L89.9061 -68.227M89.4901 -67.9496C88.9475 -68.7599 88.0636 -69.3949 87.0853 -69.9999L87.0845 -70.0004C79.5321 -74.6914 70.0511 -76.1838 60.7386 -75.2233C51.4266 -74.2629 42.3298 -70.8539 35.569 -65.8009M89.4901 -67.9496C89.49 -67.9498 89.4898 -67.95 89.4897 -67.9502L89.9061 -68.227M89.9061 -68.227L35.569 -65.8009" fill="#5E54F1" stroke="black"/>
<path d="M120.435 -44.7925C121.287 -23.1559 138.26 -3.3464 162.347 2.74093C171.621 5.08511 182.286 5.00927 193.309 4.23021C198.026 3.89683 202.83 3.43269 207.631 2.96883C208.446 2.89012 209.261 2.81141 210.075 2.73336C215.693 2.19464 221.292 1.68627 226.767 1.41227C248.734 0.312859 268.234 3.01632 278.53 22.1043L278.53 22.1045C280.463 25.6856 281.87 29.3008 283.167 32.893C283.456 33.6923 283.74 34.4925 284.023 35.2915C285.006 38.0633 285.985 40.8207 287.138 43.4749C290.138 50.3775 294.374 56.7101 303.236 61.6276L303.721 60.7532L303.236 61.6277C308.25 64.4093 313.727 66.5448 319.13 68.6515C321.487 69.5704 323.83 70.4838 326.114 71.443L326.114 71.4431C346.798 80.1189 362.474 94.6094 364.066 114.809C365.193 129.15 358.439 143.866 346.123 153.68C336.653 161.225 323.217 166.394 310.944 170.361C302.039 173.226 293.871 177.433 285.798 181.629L285.218 181.931C277.319 186.038 269.496 190.105 261.034 192.977L261.356 193.924L261.034 192.977C233.989 202.159 203.115 198.2 175.491 189.808C153.056 182.993 130.836 172.499 119.385 154.885C117.135 151.423 115.346 147.755 113.627 144.002C113.228 143.131 112.832 142.253 112.435 141.372C111.129 138.48 109.809 135.555 108.316 132.707L108.316 132.707C100.537 117.884 88.0771 105.141 75.8226 92.6088C73.846 90.5873 71.8747 88.5714 69.9293 86.553C55.8535 71.9494 43.1116 57.21 38.7792 39.176L38.7791 39.1758C35.587 25.9036 37.4186 12.0531 40.6764 -1.39157L40.6765 -1.39168C44.755 -18.2315 51.6059 -35.338 66.4513 -46.439C73.1322 -51.4322 82.141 -54.8124 91.3729 -55.7646C100.606 -56.7169 109.969 -55.2324 117.404 -50.6143L117.405 -50.6133C118.38 -50.0108 119.18 -49.4233 119.658 -48.7102C120.321 -47.7104 120.369 -46.492 120.428 -44.9672C120.43 -44.9093 120.433 -44.8512 120.435 -44.7925ZM120.435 -44.7925L121.434 -44.8318M120.435 -44.7925L121.434 -44.8318M121.434 -44.8318C121.431 -44.9219 121.427 -45.0122 121.424 -45.1027C121.37 -46.5361 121.315 -48.0237 120.489 -49.2656C119.882 -50.1734 118.914 -50.8561 117.931 -51.4638L279.41 21.6296C265.773 -3.65308 236.433 -0.818428 207.533 1.97366C191.498 3.5229 175.598 5.05903 162.592 1.77142C138.874 -4.22278 122.267 -23.6983 121.434 -44.8318Z" stroke="black" stroke-width="2"/>
<path d="M84.3471 -49.6857C85.1995 -28.0492 102.172 -8.23965 126.259 -2.15232C135.533 0.191864 146.198 0.116016 157.221 -0.663044C161.938 -0.996422 166.742 -1.46056 171.543 -1.92442C172.358 -2.00313 173.173 -2.08184 173.987 -2.15989C179.605 -2.69861 185.204 -3.20698 190.679 -3.48098C212.646 -4.58039 232.146 -1.87693 242.442 17.2111L242.443 17.2113C244.375 20.7924 245.782 24.4076 247.079 27.9998C247.368 28.799 247.652 29.5993 247.935 30.3983C248.918 33.1701 249.897 35.9275 251.05 38.5816C254.05 45.4842 258.286 51.8169 267.148 56.7344L267.633 55.86L267.148 56.7344C272.162 59.5161 277.639 61.6516 283.042 63.7582C285.399 64.6771 287.742 65.5906 290.026 66.5497L290.026 66.5499C310.711 75.2256 326.386 89.7161 327.978 109.916C329.105 124.257 322.351 138.972 310.035 148.787C300.565 156.331 287.129 161.501 274.856 165.467C265.951 168.333 257.783 172.539 249.71 176.736L249.13 177.038C241.231 181.144 233.408 185.212 224.947 188.083L225.268 189.03L224.946 188.083C197.901 197.266 167.028 193.307 139.403 184.915C116.968 178.1 94.7481 167.606 83.297 149.992C81.047 146.53 79.2583 142.862 77.5395 139.109C77.1403 138.238 76.7441 137.36 76.3466 136.479C75.0413 133.587 73.7211 130.661 72.2278 127.814L72.2277 127.813C64.449 112.99 51.9892 100.248 39.7347 87.7155C37.7581 85.6941 35.7868 83.6781 33.8414 81.6598C19.7656 67.0561 7.02374 52.3168 2.69128 34.2828L2.69122 34.2825C-0.50094 21.0104 1.33067 7.1599 4.58855 -6.28482L4.58857 -6.28493C8.66711 -23.1248 15.518 -40.2312 30.3634 -51.3323C37.0443 -56.3255 46.0531 -59.7056 55.2851 -60.6578C64.518 -61.6102 73.8807 -60.1257 81.3158 -55.5075L81.3175 -55.5065C82.2917 -54.904 83.0921 -54.3166 83.5697 -53.6034C84.2332 -52.6037 84.2808 -51.3853 84.3403 -49.8605C84.3425 -49.8026 84.3448 -49.7445 84.3471 -49.6857ZM84.3471 -49.6857L85.3463 -49.7251M84.3471 -49.6857L85.3463 -49.7251M85.3463 -49.7251C85.3428 -49.8151 85.3394 -49.9054 85.336 -49.9959C85.2824 -51.4294 85.2267 -52.9169 84.4012 -54.1589C83.7937 -55.0666 82.826 -55.7493 81.8434 -56.357L243.323 16.7363C229.685 -8.54633 200.345 -5.71168 171.445 -2.91959C155.41 -1.37035 139.51 0.165783 126.504 -3.12183C102.786 -9.11603 86.1789 -28.5916 85.3463 -49.7251Z" stroke="black" stroke-width="2"/>
</svg>
